<svg width="223" height="73" viewBox="0 0 223 73" fill="none" xmlns="http://www.w3.org/2000/svg">
<path d="M196.744 31.7157C201.94 31.7157 206.86 34.8942 207.898 41.762H184.759C185.727 35.7355 190.232 31.7157 196.744 31.7157ZM207.159 51.9228C205.392 54.6775 201.976 56.7965 197.299 56.7965C190.855 56.7965 185.935 53.2641 184.759 47.0278H213.789C213.929 46.134 214 45.2307 214.001 44.326C214.001 34.6272 207.22 26.0345 196.748 26.0345C185.941 26.0345 178.596 34.0021 178.596 44.2582C178.596 54.6415 186.013 62.4819 197.163 62.4819C204.093 62.4819 209.358 59.3627 212.406 54.6415L207.159 51.9228Z" fill="#006BFF"/>
<path d="M175.745 11H169.718V61.5792H175.745V11Z" fill="#006BFF"/>
<path d="M222.738 11H216.711V61.5792H222.738V11Z" fill="#006BFF"/>
<path d="M158.975 44.2562C158.975 37.1892 153.641 31.8535 146.642 31.8535C139.715 31.8535 134.379 37.1892 134.379 44.2562C134.379 51.3231 139.715 56.6588 146.642 56.6588C153.635 56.6588 158.975 51.3231 158.975 44.2562ZM165.003 26.9394V61.5771H158.975V55.6184C156.203 59.8565 151.77 62.4798 145.881 62.4798C136.25 62.4798 128.35 54.5101 128.35 44.2562C128.35 34.0022 136.25 26.0325 145.881 26.0325C151.77 26.0325 156.203 28.6643 158.975 32.8918V26.9394H165.003Z" fill="#006BFF"/>
<path d="M119.41 54.9106C116.324 56.0492 112.994 56.3566 109.752 55.802C106.51 55.2474 103.471 53.8503 100.94 51.7508C98.408 49.6512 96.4729 46.923 95.3283 43.8398C94.1837 40.7565 93.8698 37.4265 94.418 34.1836C94.9663 30.9407 96.3575 27.899 98.452 25.3633C100.547 22.8277 103.271 20.8873 106.352 19.7366C109.433 18.586 112.762 18.2656 116.006 18.8075C119.25 19.3494 122.295 20.7346 124.835 22.8242C125.894 23.698 126.852 24.6874 127.691 25.7739L132.906 21.9597C129.868 17.9879 125.719 15.0076 120.985 13.3965C116.251 11.7853 111.146 11.6159 106.315 12.9096C101.485 14.2033 97.1477 16.902 93.8529 20.6635C90.5581 24.4251 88.4542 29.0801 87.808 34.0387C87.1617 38.9972 88.0022 44.036 90.2228 48.5164C92.4434 52.9968 95.9442 56.717 100.281 59.2056C104.619 61.6942 109.597 62.839 114.586 62.495C119.575 62.151 124.349 60.3337 128.303 57.2733L124.832 51.785C123.211 53.1206 121.378 54.1769 119.41 54.9106Z" fill="#006BFF"/>
<path d="M49.0729 47.3032C46.7568 49.3587 43.8643 51.9164 38.6197 51.9164H35.4836C31.6884 51.9164 28.2365 50.5369 25.7657 48.0364C23.3521 45.5932 22.0235 42.2493 22.0235 38.6194V34.3284C22.0235 30.6985 23.3521 27.3547 25.7657 24.9114C28.2365 22.411 31.6884 21.0336 35.4836 21.0336H38.6197C43.8707 21.0336 46.7568 23.5891 49.0729 25.6446C51.478 27.7636 53.5526 29.6157 59.0854 29.6157C59.9292 29.6155 60.7717 29.5482 61.6049 29.4144L61.5858 29.3656C61.2544 28.5427 60.8657 27.7439 60.4225 26.9754L56.7248 20.5695C55.0573 17.6818 52.659 15.2838 49.7711 13.6167C46.8831 11.9495 43.6072 11.0719 40.2726 11.072H32.875C29.5404 11.0719 26.2645 11.9495 23.3766 13.6167C20.4886 15.2838 18.0904 17.6818 16.4229 20.5695L12.7252 26.9754C11.0582 29.8634 10.1807 33.1393 10.1807 36.4739C10.1807 39.8085 11.0582 43.0844 12.7252 45.9725L16.4229 52.3783C18.0904 55.2661 20.4886 57.664 23.3766 59.3312C26.2645 60.9984 29.5404 61.876 32.875 61.8758H40.2726C43.6072 61.876 46.8831 60.9984 49.7711 59.3312C52.659 57.664 55.0573 55.2661 56.7248 52.3783L60.4225 45.9831C60.8657 45.2145 61.2544 44.4158 61.5858 43.5928L61.6049 43.5462C60.7721 43.4079 59.9295 43.337 59.0854 43.3343C53.5526 43.3343 51.478 45.1757 49.0729 47.3054" fill="#006BFF"/>
<path d="M38.6194 24.922H35.4832C29.7067 24.922 25.9115 29.0478 25.9115 34.3284V38.6194C25.9115 43.9001 29.7067 48.0258 35.4832 48.0258H38.6194C47.0362 48.0258 46.375 39.4437 59.085 39.4437C60.2892 39.4424 61.4909 39.553 62.6746 39.7743C63.0603 37.5909 63.0603 35.3569 62.6746 33.1735C61.4908 33.3937 60.2891 33.5044 59.085 33.5041C46.3708 33.5041 47.0362 24.922 38.6194 24.922Z" fill="#006BFF"/>
<path d="M69.977 42.9105C67.8126 41.3252 65.3165 40.2521 62.6769 39.7722C62.6769 39.7955 62.6769 39.8146 62.6769 39.8357C62.4497 41.101 62.0947 42.3399 61.6174 43.5335C63.7979 43.8711 65.8666 44.7232 67.6524 46.0191C67.6524 46.036 67.6418 46.0572 67.6355 46.0763C65.337 53.5187 60.4453 59.8899 53.8489 64.0324C47.2525 68.1748 39.389 69.8138 31.6869 68.6516C23.9848 67.4894 16.9551 63.603 11.8748 57.6985C6.79443 51.7941 4.00049 44.2632 4.00049 36.4739C4.00049 28.6846 6.79443 21.1537 11.8748 15.2492C16.9551 9.34477 23.9848 5.45843 31.6869 4.2962C39.389 3.13397 47.2525 4.77296 53.8489 8.91543C60.4453 13.0579 65.337 19.4291 67.6355 26.8715C67.6355 26.8906 67.6461 26.9118 67.6524 26.9287C65.8669 28.2248 63.798 29.0762 61.6174 29.4122C62.0942 30.6074 62.4491 31.8477 62.6769 33.1142C62.6758 33.1339 62.6758 33.1537 62.6769 33.1735C65.3164 32.6943 67.8125 31.622 69.977 30.0373C72.0579 28.4968 71.6553 26.7571 71.3395 25.7272C68.7668 17.3827 63.2858 10.2381 55.8925 5.59158C48.4993 0.945099 39.6844 -0.894868 31.0498 0.406031C22.4151 1.70693 14.5336 6.06236 8.83755 12.6809C3.14148 19.2994 0.00881958 27.7418 0.00881958 36.4739C0.00881958 45.206 3.14148 53.6484 8.83755 60.2669C14.5336 66.8854 22.4151 71.2409 31.0498 72.5418C39.6844 73.8427 48.4993 72.0027 55.8925 67.3562C63.2858 62.7097 68.7668 55.5651 71.3395 47.2206C71.6553 46.1907 72.0579 44.451 69.977 42.9105Z" fill="#006BFF"/>
<path d="M61.6045 29.4122C60.7718 29.5506 59.9292 29.6214 59.085 29.6241C53.5522 29.6241 51.4777 27.7827 49.0747 25.6531C46.7565 23.5976 43.8704 21.0399 38.6194 21.0399H35.4832C31.6859 21.0399 28.2361 22.4194 25.7653 24.9199C23.3518 27.3631 22.0231 30.7069 22.0231 34.3368V38.6279C22.0231 42.2578 23.3518 45.6016 25.7653 48.0449C28.2361 50.5453 31.6859 51.9227 35.4832 51.9227H38.6194C43.8704 51.9227 46.7565 49.3671 49.0747 47.3117C51.4777 45.1927 53.5522 43.3406 59.085 43.3406C59.9289 43.3408 60.7714 43.4081 61.6045 43.5419C62.0828 42.3487 62.4378 41.1097 62.6641 39.8442C62.6652 39.823 62.6652 39.8018 62.6641 39.7806C61.4801 39.5611 60.2785 39.4512 59.0744 39.4522C46.3602 39.4522 47.0256 48.0364 38.6088 48.0364H35.4726C29.6961 48.0364 25.901 43.9085 25.901 38.6279V34.3284C25.901 29.0477 29.6961 24.922 35.4726 24.922H38.6088C47.0256 24.922 46.3645 33.5019 59.0744 33.5019C60.2786 33.504 61.4803 33.394 62.6641 33.1735C62.6641 33.1544 62.6641 33.1354 62.6641 33.1142C62.4363 31.8477 62.0813 30.6074 61.6045 29.4122Z" fill="#0AE8F0"/>
<path d="M61.6045 29.4122C60.7718 29.5506 59.9292 29.6214 59.085 29.6241C53.5522 29.6241 51.4777 27.7827 49.0747 25.6531C46.7565 23.5976 43.8704 21.0399 38.6194 21.0399H35.4832C31.6859 21.0399 28.2361 22.4194 25.7653 24.9199C23.3518 27.3631 22.0231 30.7069 22.0231 34.3368V38.6279C22.0231 42.2578 23.3518 45.6016 25.7653 48.0449C28.2361 50.5453 31.6859 51.9227 35.4832 51.9227H38.6194C43.8704 51.9227 46.7565 49.3671 49.0747 47.3117C51.4777 45.1927 53.5522 43.3406 59.085 43.3406C59.9289 43.3408 60.7714 43.4081 61.6045 43.5419C62.0828 42.3487 62.4378 41.1097 62.6641 39.8442C62.6652 39.823 62.6652 39.8018 62.6641 39.7806C61.4801 39.5611 60.2785 39.4512 59.0744 39.4522C46.3602 39.4522 47.0256 48.0364 38.6088 48.0364H35.4726C29.6961 48.0364 25.901 43.9085 25.901 38.6279V34.3284C25.901 29.0477 29.6961 24.922 35.4726 24.922H38.6088C47.0256 24.922 46.3645 33.5019 59.0744 33.5019C60.2786 33.504 61.4803 33.394 62.6641 33.1735C62.6641 33.1544 62.6641 33.1354 62.6641 33.1142C62.4363 31.8477 62.0813 30.6074 61.6045 29.4122Z" fill="#0AE8F0"/>
</svg>
