<svg width="118" height="17" viewBox="0 0 118 17" fill="none" xmlns="http://www.w3.org/2000/svg">
<g clip-path="url(#clip0)">
<path d="M26.1693 14.5378C23.8533 14.552 21.7575 13.1674 20.8616 11.0317C19.9656 8.89594 20.4461 6.43079 22.079 4.78809C23.7117 3.14538 26.174 2.64984 28.3151 3.5329C30.4561 4.41596 31.8533 6.50333 31.8533 8.81933C31.8586 11.9662 29.3162 14.524 26.1693 14.5378ZM26.1693 0.959093C22.9904 0.942449 20.1151 2.84485 18.8872 5.77697C17.659 8.70938 18.3207 12.0928 20.5626 14.3466C22.8048 16.6004 26.1847 17.2796 29.1234 16.0668C32.0621 14.8541 33.9793 11.9888 33.9793 8.80988C33.9793 4.48975 30.4891 0.981703 26.1693 0.959093Z" fill="black"/>
<path d="M55.1703 1.41141C55.0979 1.41203 55.0312 1.45003 54.9943 1.5119L46.9455 12.4559L38.8971 1.5119C38.8594 1.44909 38.7912 1.41078 38.718 1.41141C38.6012 1.41141 38.506 1.50499 38.5045 1.62181V16.2023H40.6335V7.59155L46.8202 15.9448C46.851 15.9822 46.8971 16.0039 46.9455 16.0039C46.9943 16.0039 47.04 15.9822 47.0712 15.9448L53.2575 7.59155V16.2023H55.3867V1.62181C55.3859 1.56528 55.3627 1.51127 55.3223 1.4717C55.2811 1.43213 55.2267 1.41047 55.1703 1.41141Z" fill="black"/>
<path d="M68.4035 8.75966H63.4419V3.54672H68.4035C69.8412 3.54672 71.0069 4.71241 71.0069 6.15006C71.0069 7.5877 69.8412 8.75337 68.4035 8.75337V8.75966ZM68.4035 1.40503H61.3063V16.1959H63.4355V10.9013H68.3974C71.0179 10.9013 73.1421 8.77692 73.1421 6.15634C73.1421 3.53573 71.0179 1.41131 68.3974 1.41131" fill="black"/>
<path d="M8.58991 14.538C5.90683 14.5531 3.57387 12.7006 2.98066 10.0841C2.38746 7.46725 3.6932 4.7898 6.12066 3.64642C8.54782 2.50272 11.4438 3.20081 13.0837 5.32428L14.613 3.8138C12.5024 1.26386 9.01917 0.311406 5.90492 1.43313C2.79036 2.55485 0.714294 5.50927 0.714294 8.81948C0.714294 12.1297 2.79036 15.0841 5.90492 16.2058C9.01917 17.3275 12.5024 16.3751 14.613 13.8252L13.0837 12.3146C12.0144 13.7159 10.3525 14.538 8.58991 14.538Z" fill="black"/>
<path d="M98.384 7.4565L96.7543 7.08595C95.0019 6.70911 94.8701 5.51578 94.8701 5.1421C94.8701 3.93307 95.8343 3.23906 97.5143 3.23906C99.2416 3.23906 100.504 4.4104 100.89 4.80923L102.388 3.33641C100.981 1.86046 99.389 1.13818 97.5143 1.13818C94.6598 1.13818 92.741 2.74289 92.741 5.13265C92.741 5.89262 92.741 8.20389 96.5783 9.14915L98.3619 9.56995C100.017 10.0253 100.821 10.8261 100.821 12.0131C100.821 13.4043 99.48 14.3746 97.5646 14.3746C95.5139 14.3746 94.2515 12.9646 93.8747 12.4904L92.3954 13.9475C93.4034 15.0969 95.1246 16.4598 97.5863 16.4598C100.655 16.4598 102.969 14.5442 102.969 12.0068C102.969 9.73323 101.399 8.15681 98.3996 7.45022" fill="black"/>
<path d="M112.714 7.4565L111.083 7.08595C109.331 6.70911 109.199 5.51578 109.199 5.1421C109.199 3.93307 110.163 3.23906 111.843 3.23906C113.571 3.23906 114.833 4.41039 115.216 4.80923L116.717 3.33641C115.31 1.86046 113.715 1.13818 111.843 1.13818C108.989 1.13818 107.07 2.74289 107.07 5.13265C107.07 5.89262 107.07 8.20389 110.908 9.14915L112.701 9.5605C114.353 10.0159 115.157 10.8167 115.157 12.0037C115.157 13.3948 113.819 14.3652 111.903 14.3652C109.853 14.3652 108.587 12.9552 108.213 12.481L106.712 13.9538C107.72 15.1032 109.441 16.4661 111.903 16.4661C114.971 16.4661 117.286 14.5505 117.286 12.0131C117.286 9.73951 115.715 8.16309 112.717 7.4565" fill="black"/>
<path d="M79.3539 10.27L81.7909 5.62236L84.2309 10.27H79.3539ZM81.7909 1.2793C81.7071 1.27993 81.6312 1.32891 81.5962 1.40491L73.8362 16.2021H76.245L78.2297 12.4117H85.3486L87.3364 16.2021H89.7421L81.9855 1.40491C81.9497 1.32954 81.8743 1.28087 81.7909 1.2793Z" fill="black"/>
<path d="M22.8123 10.669L24.3165 12.1826L29.5232 6.94772L28.0158 5.43408L22.8123 10.669Z" fill="black"/>
</g>
<defs>
<clipPath id="clip0">
<rect width="116.571" height="16" fill="white" transform="translate(0.714294 0.958984)"/>
</clipPath>
</defs>
</svg>
