<svg width="60" height="25" viewBox="0 0 60 25" fill="none" xmlns="http://www.w3.org/2000/svg">
<g clip-path="url(#clip0)">
<path fill-rule="evenodd" clip-rule="evenodd" d="M8.46102 6.37598C4.40677 6.37598 1.02823 8.10714 1.02823 13.3303C1.02823 17.4681 3.30009 20.0737 8.56579 20.0737C14.764 20.0737 15.1613 15.9644 15.1613 15.9644H12.158C12.158 15.9644 11.5142 18.1771 8.38271 18.1771C5.8322 18.1771 3.99793 16.4431 3.99793 14.0124H15.4755V12.4873C15.4755 10.0826 13.9588 6.37598 8.46117 6.37598H8.46102ZM8.35641 8.32526C10.7844 8.32526 12.4394 9.8224 12.4394 12.066H4.06418C4.06418 9.68413 6.22452 8.32526 8.35641 8.32526Z" fill="black"/>
<path fill-rule="evenodd" clip-rule="evenodd" d="M15.4747 1.31885V17.4513C15.4747 18.367 15.4098 19.6529 15.4098 19.6529H18.2743C18.2743 19.6529 18.377 18.7295 18.377 17.8854C18.377 17.8854 19.7923 20.114 23.6405 20.114C27.6928 20.114 30.4454 17.2824 30.4454 13.2256C30.4454 9.45156 27.917 6.41617 23.6471 6.41617C19.6486 6.41617 18.4061 8.5895 18.4061 8.5895V1.31899H15.4747V1.31885ZM22.9075 8.41145C25.6594 8.41145 27.4092 10.4671 27.4092 13.2254C27.4092 16.1834 25.3882 18.1183 22.9274 18.1183C19.9903 18.1183 18.4061 15.8104 18.4061 13.2516C18.4061 10.8676 19.8276 8.41131 22.9077 8.41131L22.9075 8.41145Z" fill="black"/>
<path fill-rule="evenodd" clip-rule="evenodd" d="M37.5629 6.37626C31.4634 6.37626 31.0722 9.73778 31.0722 10.275H34.1081C34.1081 10.275 34.2672 8.3124 37.3534 8.3124C39.3589 8.3124 40.9128 9.23634 40.9128 11.0125V11.6447H37.3534C32.6281 11.6447 30.1301 13.0358 30.1301 15.8593C30.1301 18.6378 32.4381 20.1499 35.5576 20.1499C39.8086 20.1499 41.178 17.7857 41.178 17.7857C41.178 18.7258 41.2501 19.6525 41.2501 19.6525H43.949C43.949 19.6525 43.8443 18.5039 43.8443 17.769V11.4172C43.8443 7.25249 40.5067 6.37598 37.563 6.37598L37.5629 6.37626ZM40.9128 13.5414V14.3843C40.9128 15.4837 40.2389 18.2171 36.2705 18.2171C34.0975 18.2171 33.1658 17.1257 33.1658 15.8595C33.1658 13.5563 36.3034 13.5414 40.9128 13.5414Z" fill="black"/>
<path fill-rule="evenodd" clip-rule="evenodd" d="M42.2088 6.90405H45.6242L50.5258 16.788L55.4165 6.90405H58.5103L49.6024 24.5004H46.357L48.9275 19.5953L42.2086 6.90405H42.2088Z" fill="black"/>
</g>
<defs>
<clipPath id="clip0">
<rect width="58.0645" height="24" fill="white" transform="translate(0.967743 0.958984)"/>
</clipPath>
</defs>
</svg>
