<svg width="106" height="25" viewBox="0 0 106 25" fill="none" xmlns="http://www.w3.org/2000/svg">
<g clip-path="url(#clip0)">
<path d="M105.375 8.75631L105.071 12.4041H103.581C101.203 12.4041 99.9667 14.3106 99.9667 16.1378V24.3763H95.7516V8.75631H99.7444L99.8354 10.7059C100.673 9.369 102.139 8.75631 103.946 8.75631H105.375ZM76.1499 24.3762H71.9303V16.1187C71.9303 14.3894 71.7812 12.2129 69.349 12.2129C67.0065 12.2129 66.073 13.9034 66.073 15.8719V24.3762H61.8554V8.75618H65.7661L65.8551 10.753C66.6932 9.41612 68.2545 8.37515 70.5572 8.37515C74.8084 8.37515 76.1499 11.4101 76.1499 14.5686V24.3762ZM60.0156 20.7274L59.7206 24.2815C58.7089 24.5529 57.8107 24.6502 56.7239 24.6502C52.7486 24.6502 51.5955 22.8273 51.5955 19.1635V4.35144H55.8143V8.7565H60.0123L59.7206 12.4037H55.8143V18.8463C55.8143 20.3166 56.2176 21.1108 57.7256 21.1108C58.3813 21.1108 59.1108 21.0319 60.0156 20.7274ZM50.2102 8.75631L49.8836 12.4041H48.7371C46.3635 12.4041 45.1831 14.3083 45.1831 16.1378V24.3763H40.9638V8.75631H44.9585L45.0417 10.7059C45.8841 9.369 47.3501 8.75631 49.1603 8.75631H50.2102ZM21.9251 22.6457C19.0636 24.1765 16.2053 25.0596 12.43 24.9499C5.43097 24.7362 0.381561 20.3902 0.381561 13.0494C0.381561 5.74074 5.47967 1.07095 12.4333 0.961274C15.9581 0.907381 19.1123 1.80182 21.5777 3.9774L18.6079 6.9817C17.0823 5.68117 14.8377 4.92101 12.1553 5.0425C7.77912 5.24625 5.14212 8.42643 5.08398 12.7989C5.02677 17.5363 7.93183 20.801 12.473 20.9202C14.6098 20.9736 16.1406 20.6866 17.4652 20.0919V15.2496H12.7454L13.0639 11.278H21.9251V22.6457ZM93.8676 18.0507H82.3008C82.6305 20.0467 84.1993 21.2474 86.1528 21.3018C88.0526 21.3533 89.1156 20.7794 90.505 19.3725L93.2575 21.4715C91.3015 23.8811 88.9539 24.7581 86.2791 24.7581C81.5758 24.7581 78.0516 21.4691 78.0516 16.5658C78.0516 11.6676 81.5581 8.37496 86.1036 8.37496C91.1132 8.37496 93.8676 11.41 93.8676 16.7974V18.0507ZM89.641 14.785C89.5116 12.8117 88.033 11.5641 85.9968 11.6436C83.948 11.7211 82.5831 13.0557 82.3008 14.785H89.641ZM38.3078 14.1478V24.3761H34.5883L34.496 22.836C33.3548 24.2494 31.5021 24.7581 29.5946 24.7581C26.7222 24.7581 24.0082 23.3418 23.9514 20.0429C23.8659 14.8579 29.787 14.4896 33.5056 14.4896H34.2488V14.2845C34.2488 12.5698 33.1142 11.6436 30.9778 11.6436C29.4443 11.6436 27.9305 12.2587 26.8111 13.3082L24.3769 10.8353C26.587 9.04355 28.8864 8.37509 31.3362 8.37509C36.1748 8.37509 38.3078 10.6112 38.3078 14.1478ZM34.2488 17.5644H33.6621C31.6647 17.5686 28.1565 17.6669 28.1698 19.7555C28.1887 22.6979 34.2488 21.7628 34.2488 18.2144V17.5644Z" fill="black"/>
</g>
<defs>
<clipPath id="clip0">
<rect width="105.474" height="24" fill="white" transform="translate(0.263153 0.958984)"/>
</clipPath>
</defs>
</svg>
