<svg width="104" height="17" viewBox="0 0 104 17" fill="none" xmlns="http://www.w3.org/2000/svg">
<g clip-path="url(#clip0)">
<path d="M102.095 5.34029C102.095 4.8641 102.453 4.506 102.914 4.506C103.368 4.506 103.73 4.8641 103.73 5.34029C103.73 5.8241 103.371 6.18219 102.914 6.18219C102.453 6.18219 102.095 5.8241 102.095 5.34029ZM102.914 6.34981C103.463 6.34981 103.931 5.92314 103.931 5.34029C103.931 4.76505 103.463 4.33838 102.914 4.33838C102.362 4.33838 101.893 4.76505 101.893 5.34029C101.893 5.92314 102.362 6.34981 102.914 6.34981ZM102.705 5.42029H102.907L103.211 5.92314H103.41L103.082 5.41267C103.25 5.39362 103.383 5.30219 103.383 5.09267C103.383 4.8641 103.25 4.76124 102.975 4.76124H102.533V5.91934H102.712V5.42029H102.705ZM102.705 5.27172V4.91362H102.945C103.067 4.91362 103.196 4.94029 103.196 5.08505C103.196 5.2641 103.063 5.27172 102.914 5.27172H102.705Z" fill="black"/>
<path d="M6.56762 11.0357C6.50286 11.2757 6.41143 11.3214 6.26667 11.3214C6.26667 11.3214 1.98857 11.3214 1.78286 11.3214C1.78286 11.1157 1.78286 5.19187 1.78286 5.19187C1.78286 5.03187 1.82476 4.94806 2.06095 4.8833L2.13714 4.86044V4.47949H2.03429H0V4.85663L0.08 4.87949C0.31619 4.94044 0.358095 5.02806 0.358095 5.18806V11.8547C0.358095 12.0109 0.31619 12.0985 0.08 12.1633L0 12.1823V12.5633H6.26667C6.42667 12.5633 6.50286 12.6014 6.56762 12.849L6.58667 12.929H6.96V10.9557H6.58667L6.56762 11.0357Z" fill="black"/>
<path d="M23.7561 11.2909L23.7408 11.2566L21.2113 5.26425C21.1313 5.07758 21.1237 5.04711 21.1237 5.02044C21.1237 4.95949 21.1237 4.9252 21.3027 4.87568L21.3789 4.85282V4.47949H21.2723H19.1123V4.86044L19.1923 4.8833C19.3637 4.92139 19.3637 4.95568 19.3637 5.00139C19.3637 5.0433 19.3446 5.09282 19.2761 5.26806L16.7808 11.4814C16.5256 12.0909 16.4608 12.1214 16.2513 12.1595L16.1637 12.1747V12.5633H18.198V12.1747L18.1104 12.1595C17.897 12.1252 17.897 12.0871 17.897 12.0414C17.897 11.9843 17.897 11.9804 17.9732 11.7862C17.9732 11.7862 18.3656 10.7919 18.4723 10.5214C18.6056 10.5214 21.8856 10.5214 22.0189 10.5214C22.0685 10.6395 22.518 11.7062 22.518 11.7062C22.5904 11.8814 22.6247 11.9652 22.6247 12.0185C22.6247 12.049 22.6246 12.1328 22.4151 12.1595L22.3199 12.1709V12.5633H24.4913V12.1823L24.4113 12.1633C24.0723 12.0833 24.0723 12.0833 23.7561 11.2909ZM21.5008 9.27949C21.2304 9.27949 19.2266 9.27949 18.9637 9.27949C19.0627 9.02806 20.0418 6.55568 20.2018 6.15568C20.3656 6.55949 21.3942 9.02806 21.5008 9.27949Z" fill="black"/>
<path d="M44.4571 12.8489C44.3924 12.6242 44.32 12.5632 44.1105 12.5632H36.9067V12.1213C36.9067 12.1213 41.9086 6.05274 42.1829 5.72131C41.7714 5.72131 37.8896 5.72131 37.8896 5.72131C37.7105 5.72131 37.6077 5.76702 37.5429 6.01083L37.52 6.08702H37.1277V4.42989C32.1105 8.02226 29.4705 12.9365 31.2267 15.4623C32.9981 18.0108 38.5676 17.1575 43.6724 13.5575C43.9619 13.3518 44.2438 13.1423 44.5219 12.9289H44.48L44.4571 12.8489ZM49.7067 2.42608C47.9657 -0.0767795 42.5562 0.704173 37.5277 4.14798L37.5429 4.18989C37.6077 4.41084 37.6877 4.47941 37.8896 4.47941H44.861V4.79178C44.861 4.79178 39.7676 10.9899 39.4933 11.3213C39.9048 11.3213 44.1105 11.3213 44.1105 11.3213C44.2895 11.3213 44.3886 11.2756 44.4571 11.0356L44.48 10.9556H44.8724V12.6508C49.1848 9.1575 51.3333 4.76513 49.7067 2.42608Z" fill="black"/>
<path d="M63.7029 8.29649C64.4114 7.96126 64.7314 7.44316 64.7314 6.65459C64.7314 5.96888 64.4381 5.34411 63.9467 4.98602C63.4476 4.62792 62.8038 4.48315 61.7333 4.48315H56.9105H56.8038V4.85269L56.8838 4.87554C57.1276 4.9365 57.1695 5.01269 57.1695 5.16126V11.9194C57.1695 12.0336 57.1467 12.1213 56.8838 12.1936L56.8038 12.2127V12.5708H61.8057C62.9333 12.5708 63.5581 12.4184 64.1143 12.0184C64.6857 11.607 64.9752 11.0013 64.9752 10.2203C64.9791 9.27554 64.5486 8.63554 63.7029 8.29649ZM58.5752 8.9403C58.7733 8.9403 61.6305 8.9403 61.6305 8.9403C62.941 8.9403 63.4781 9.28316 63.4781 10.1289C63.4781 10.9632 62.9257 11.3174 61.6305 11.3174C61.6305 11.3174 58.7733 11.3174 58.5752 11.3174C58.5752 11.1308 58.5752 9.13078 58.5752 8.9403ZM62.8952 7.49268C62.6286 7.64888 62.3238 7.70221 61.6419 7.70221C61.6419 7.70221 58.7733 7.70221 58.5752 7.70221C58.5752 7.51935 58.5752 5.90792 58.5752 5.72126C58.7733 5.72126 61.6419 5.72126 61.6419 5.72126C62.3543 5.72126 62.64 5.76697 62.8914 5.93078C63.1352 6.07935 63.2762 6.36507 63.2762 6.70792C63.28 7.0584 63.1391 7.34411 62.8952 7.49268Z" fill="black"/>
<path d="M81.68 5.25648C80.8952 4.64695 79.92 4.33838 78.781 4.33838C77.5238 4.33838 76.5943 4.62028 75.7676 5.25648C74.8038 5.99934 74.2057 7.25267 74.2057 8.52505C74.2057 9.80124 74.7886 11.0165 75.7676 11.7822C76.5486 12.4031 77.5162 12.7041 78.7238 12.7041C79.9314 12.7041 80.8991 12.4031 81.68 11.7822C82.6591 11.005 83.2457 9.786 83.2457 8.52505C83.2419 7.24886 82.6591 6.026 81.68 5.25648ZM78.7238 11.4279C76.8876 11.4279 75.7029 10.2889 75.7029 8.52505C75.7029 6.7841 76.899 5.61457 78.6781 5.61457C79.6876 5.61457 80.4 5.88505 80.9905 6.49076C81.4895 7.01648 81.7448 7.70219 81.7448 8.52505C81.741 10.2622 80.5295 11.4279 78.7238 11.4279Z" fill="black"/>
<path d="M100.777 4.47949H98.4114V4.86044L98.4914 4.87949C98.659 4.92139 98.659 4.94425 98.659 4.97473C98.659 5.05473 98.5867 5.18806 98.4305 5.39377C98.4305 5.39377 96.96 7.46235 96.5829 7.98806C96.4267 7.77092 94.7619 5.48901 94.7619 5.48901C94.5867 5.25282 94.5105 5.10044 94.5105 4.99758C94.5105 4.93663 94.5105 4.91758 94.6971 4.87949L94.781 4.86044V4.47949H92.24V4.86425L92.3238 4.87949C92.6019 4.92901 92.6095 4.93282 93.2229 5.71377C93.2229 5.70996 95.5886 8.94425 95.7981 9.22996C95.7981 9.29854 95.7981 11.8509 95.7981 11.8509C95.7981 12.0071 95.7562 12.0947 95.5162 12.1595L95.4362 12.1785V12.5595H97.6152V12.1785L97.5352 12.1595C97.2914 12.0947 97.2495 12.0071 97.2495 11.8509C97.2495 11.8509 97.2495 9.30235 97.2495 9.22996C97.2914 9.17663 99.8514 5.70996 99.8514 5.70996C100.427 4.98616 100.514 4.90996 100.785 4.87949L100.88 4.86806V4.47949H100.777Z" fill="black"/>
</g>
<defs>
<clipPath id="clip0">
<rect width="104" height="16" fill="white" transform="translate(0 0.958984)"/>
</clipPath>
</defs>
</svg>
