<svg width="80" height="25" viewBox="0 0 80 25" fill="none" xmlns="http://www.w3.org/2000/svg">
<g clip-path="url(#clip0)">
<path d="M56.5502 5.85498V8.30298C56.5502 8.39898 56.4542 8.49498 56.3582 8.49498H52.1367C52.0407 8.49498 51.9451 8.39898 51.9451 8.30298V5.85498C51.9451 5.75898 52.0407 5.66298 52.1367 5.66298H56.3582C56.4542 5.66298 56.5502 5.75898 56.5502 5.85498ZM56.2622 9.31098H48.1071C48.0111 9.31098 47.8675 9.40698 47.8195 9.50298L46.7639 13.487L46.7159 13.679L45.4687 9.40698C45.4207 9.31098 45.3247 9.21498 45.1807 9.21498H42.0148C41.9188 9.21498 41.7748 9.31098 41.7268 9.40698L40.5277 13.391L40.4797 13.583L40.4318 13.391L39.904 11.423L39.3764 9.45498C39.3284 9.35898 39.2324 9.26298 39.0885 9.26298H32.7083V5.80698C32.7083 5.71098 32.5644 5.56698 32.4205 5.61498L28.3909 6.86298C28.247 6.91098 28.199 6.95898 28.199 7.05498V9.21498H27.1436C27.0476 9.21498 26.9517 9.31098 26.9517 9.40698V12.479C26.9517 12.575 27.0476 12.671 27.1436 12.671H28.199V16.415C28.199 19.055 29.6381 20.303 32.2766 20.303C33.3799 20.303 34.4353 20.063 35.1549 19.679V16.511C35.1549 16.367 35.011 16.319 34.915 16.319C34.4832 16.511 34.1475 16.559 33.7637 16.559C33.0441 16.559 32.6604 16.271 32.6604 15.455V12.719H34.963C35.0589 12.719 35.1549 12.623 35.1549 12.527V9.93498L38.1771 19.967C38.2251 20.063 38.321 20.159 38.4649 20.159H41.7748C41.8708 20.159 42.0148 20.063 42.0628 19.967L43.502 15.503L44.2216 17.807L44.8931 19.919C44.9411 20.015 45.0371 20.111 45.1807 20.111H48.5391C48.6347 20.111 48.7787 20.015 48.8267 19.919L51.8971 9.83898V19.919C51.8971 20.015 51.9931 20.111 52.0887 20.111H56.1662C56.2622 20.111 56.3582 20.015 56.3582 19.919V9.55098C56.5022 9.40698 56.4062 9.31098 56.2622 9.31098ZM61.6354 5.66298H57.5574C57.4618 5.66298 57.3658 5.75898 57.3658 5.85498V20.015C57.3658 20.111 57.4618 20.207 57.5574 20.207H61.6354C61.731 20.207 61.827 20.111 61.827 20.015V5.85498C61.875 5.75898 61.779 5.66298 61.6354 5.66298ZM67.1041 5.66298H62.8826C62.7866 5.66298 62.6906 5.75898 62.6906 5.85498V8.30298C62.6906 8.39898 62.7866 8.49498 62.8826 8.49498H67.1041C67.1997 8.49498 67.2957 8.39898 67.2957 8.30298V5.85498C67.2957 5.75898 67.1997 5.66298 67.1041 5.66298ZM67.0081 9.31098H62.9306C62.8346 9.31098 62.7386 9.40698 62.7386 9.50298V20.015C62.7386 20.111 62.8346 20.207 62.9306 20.207H67.0081C67.1041 20.207 67.1997 20.111 67.1997 20.015V9.55098C67.2477 9.40698 67.1517 9.31098 67.0081 9.31098ZM79.8644 14.687C79.8644 17.807 77.322 20.399 73.7241 20.399C70.1741 20.399 67.6317 17.807 67.6317 14.735V14.687C67.6317 11.615 70.1741 8.97498 73.7721 8.97498C77.322 9.07098 79.8644 11.663 79.8644 14.687ZM75.5468 14.735C75.5468 13.679 74.7312 12.815 73.7721 12.815C72.7645 12.815 72.0449 13.679 72.0449 14.687V14.735C72.0449 15.791 72.8605 16.655 73.8201 16.655C74.7793 16.655 75.5468 15.839 75.5468 14.735ZM24.1214 12.959C24.1214 19.583 18.7486 24.959 12.1285 24.959C5.50842 24.959 0.13559 19.583 0.13559 12.959C0.13559 6.33498 5.50842 0.958984 12.1285 0.958984C18.7486 0.958984 24.1214 6.33498 24.1214 12.959ZM21.0032 12.959C21.0032 8.06298 17.0696 4.12698 12.1765 4.12698C7.28336 4.12698 3.34969 8.06298 3.34969 12.959C3.34969 17.855 7.28336 21.791 12.1765 21.791C17.0216 21.791 21.0032 17.855 21.0032 12.959ZM15.1507 12.479C16.5419 12.479 17.6452 11.375 17.6452 9.98298C17.6452 8.59098 16.5419 7.48698 15.1507 7.48698C13.7595 7.48698 12.6562 8.59098 12.6562 9.98298C12.6562 11.375 13.7595 12.479 15.1507 12.479ZM15.1507 18.431C16.5419 18.431 17.6452 17.327 17.6452 15.935C17.6452 14.543 16.5419 13.439 15.1507 13.439C13.7595 13.439 12.6562 14.543 12.6562 15.935C12.6562 17.327 13.7595 18.431 15.1507 18.431ZM9.15426 18.431C10.5454 18.431 11.6488 17.327 11.6488 15.935C11.6488 14.543 10.5454 13.439 9.15426 13.439C7.76307 13.439 6.65972 14.543 6.65972 15.935C6.65972 17.327 7.76307 18.431 9.15426 18.431ZM9.15426 12.479C10.5454 12.479 11.6488 11.375 11.6488 9.98298C11.6488 8.59098 10.5454 7.48698 9.15426 7.48698C7.76307 7.48698 6.65972 8.59098 6.65972 9.98298C6.65972 11.327 7.76307 12.479 9.15426 12.479Z" fill="black"/>
</g>
<defs>
<clipPath id="clip0">
<rect width="79.7288" height="24" fill="white" transform="translate(0.13559 0.958984)"/>
</clipPath>
</defs>
</svg>
